<?xml version="1.0" encoding="UTF-8" standalone="no"?>
<!DOCTYPE svg PUBLIC "-//W3C//DTD SVG 1.1//EN"
 "http://www.w3.org/Graphics/SVG/1.1/DTD/svg11.dtd">
<!-- Generated by graphviz version 2.40.1 (20161225.0304)
 -->
<!-- Title: model Pages: 1 -->
<svg width="508pt" height="1382pt"
 viewBox="0.00 0.00 508.02 1382.00" xmlns="http://www.w3.org/2000/svg" xmlns:xlink="http://www.w3.org/1999/xlink">
<g id="graph0" class="graph" transform="scale(.787 .787) rotate(0) translate(4 1752)">
<title>model</title>
<polygon fill="#ffffff" stroke="transparent" points="-4,4 -4,-1752 641.5,-1752 641.5,4 -4,4"/>
<!-- 0 -->
<g id="node1" class="node">
<title>0</title>
<polygon fill="#ffffe0" stroke="#000000" points="236.5,-1717.5 236.5,-1747.5 402.5,-1747.5 402.5,-1717.5 236.5,-1717.5"/>
<text text-anchor="middle" x="274.5" y="-1735.5" font-family="Linux libertine" font-size="10.00" fill="#000000">input&#45;tensor</text>
<text text-anchor="middle" x="274.5" y="-1724.5" font-family="Linux libertine" font-size="10.00" fill="#000000">depth:0</text>
<polyline fill="none" stroke="#000000" points="312.5,-1717.5 312.5,-1747.5 "/>
<text text-anchor="middle" x="357.5" y="-1730" font-family="Linux libertine" font-size="10.00" fill="#000000">(1, 3, 512, 672)</text>
</g>
<!-- 1 -->
<g id="node2" class="node">
<title>1</title>
<polygon fill="#c1ffc1" stroke="#000000" points="219.5,-1642.5 219.5,-1680.5 419.5,-1680.5 419.5,-1642.5 219.5,-1642.5"/>
<text text-anchor="middle" x="246" y="-1664.5" font-family="Linux libertine" font-size="10.00" fill="#000000">Conv2d</text>
<text text-anchor="middle" x="246" y="-1653.5" font-family="Linux libertine" font-size="10.00" fill="#000000">depth:2</text>
<polyline fill="none" stroke="#000000" points="272.5,-1642.5 272.5,-1680.5 "/>
<text text-anchor="middle" x="298" y="-1668.5" font-family="Linux libertine" font-size="10.00" fill="#000000">input:</text>
<polyline fill="none" stroke="#000000" points="272.5,-1661.5 323.5,-1661.5 "/>
<text text-anchor="middle" x="298" y="-1649.5" font-family="Linux libertine" font-size="10.00" fill="#000000">output:</text>
<polyline fill="none" stroke="#000000" points="323.5,-1642.5 323.5,-1680.5 "/>
<text text-anchor="middle" x="371.5" y="-1668.5" font-family="Linux libertine" font-size="10.00" fill="#000000">(1, 3, 512, 672)</text>
<polyline fill="none" stroke="#000000" points="323.5,-1661.5 419.5,-1661.5 "/>
<text text-anchor="middle" x="371.5" y="-1649.5" font-family="Linux libertine" font-size="10.00" fill="#000000">(1, 64, 256, 336)</text>
</g>
<!-- 0&#45;&gt;1 -->
<g id="edge1" class="edge">
<title>0&#45;&gt;1</title>
<path fill="none" stroke="#000000" d="M319.5,-1717.4427C319.5,-1709.6348 319.5,-1699.8255 319.5,-1690.6103"/>
<polygon fill="#000000" stroke="#000000" points="323.0001,-1690.5967 319.5,-1680.5967 316.0001,-1690.5968 323.0001,-1690.5967"/>
</g>
<!-- 2 -->
<g id="node3" class="node">
<title>2</title>
<polygon fill="#c1ffc1" stroke="#000000" points="204.5,-1567.5 204.5,-1605.5 434.5,-1605.5 434.5,-1567.5 204.5,-1567.5"/>
<text text-anchor="middle" x="246" y="-1589.5" font-family="Linux libertine" font-size="10.00" fill="#000000">BatchNorm2d</text>
<text text-anchor="middle" x="246" y="-1578.5" font-family="Linux libertine" font-size="10.00" fill="#000000">depth:2</text>
<polyline fill="none" stroke="#000000" points="287.5,-1567.5 287.5,-1605.5 "/>
<text text-anchor="middle" x="313" y="-1593.5" font-family="Linux libertine" font-size="10.00" fill="#000000">input:</text>
<polyline fill="none" stroke="#000000" points="287.5,-1586.5 338.5,-1586.5 "/>
<text text-anchor="middle" x="313" y="-1574.5" font-family="Linux libertine" font-size="10.00" fill="#000000">output:</text>
<polyline fill="none" stroke="#000000" points="338.5,-1567.5 338.5,-1605.5 "/>
<text text-anchor="middle" x="386.5" y="-1593.5" font-family="Linux libertine" font-size="10.00" fill="#000000">(1, 64, 256, 336)</text>
<polyline fill="none" stroke="#000000" points="338.5,-1586.5 434.5,-1586.5 "/>
<text text-anchor="middle" x="386.5" y="-1574.5" font-family="Linux libertine" font-size="10.00" fill="#000000">(1, 64, 256, 336)</text>
</g>
<!-- 1&#45;&gt;2 -->
<g id="edge2" class="edge">
<title>1&#45;&gt;2</title>
<path fill="none" stroke="#000000" d="M319.5,-1642.1856C319.5,-1634.2247 319.5,-1624.821 319.5,-1616.03"/>
<polygon fill="#000000" stroke="#000000" points="323.0001,-1615.7489 319.5,-1605.7489 316.0001,-1615.7489 323.0001,-1615.7489"/>
</g>
<!-- 3 -->
<g id="node4" class="node">
<title>3</title>
<polygon fill="#c1ffc1" stroke="#000000" points="219.5,-1492.5 219.5,-1530.5 419.5,-1530.5 419.5,-1492.5 219.5,-1492.5"/>
<text text-anchor="middle" x="246" y="-1514.5" font-family="Linux libertine" font-size="10.00" fill="#000000">ReLU</text>
<text text-anchor="middle" x="246" y="-1503.5" font-family="Linux libertine" font-size="10.00" fill="#000000">depth:2</text>
<polyline fill="none" stroke="#000000" points="272.5,-1492.5 272.5,-1530.5 "/>
<text text-anchor="middle" x="298" y="-1518.5" font-family="Linux libertine" font-size="10.00" fill="#000000">input:</text>
<polyline fill="none" stroke="#000000" points="272.5,-1511.5 323.5,-1511.5 "/>
<text text-anchor="middle" x="298" y="-1499.5" font-family="Linux libertine" font-size="10.00" fill="#000000">output:</text>
<polyline fill="none" stroke="#000000" points="323.5,-1492.5 323.5,-1530.5 "/>
<text text-anchor="middle" x="371.5" y="-1518.5" font-family="Linux libertine" font-size="10.00" fill="#000000">(1, 64, 256, 336)</text>
<polyline fill="none" stroke="#000000" points="323.5,-1511.5 419.5,-1511.5 "/>
<text text-anchor="middle" x="371.5" y="-1499.5" font-family="Linux libertine" font-size="10.00" fill="#000000">(1, 64, 256, 336)</text>
</g>
<!-- 2&#45;&gt;3 -->
<g id="edge3" class="edge">
<title>2&#45;&gt;3</title>
<path fill="none" stroke="#000000" d="M319.5,-1567.1856C319.5,-1559.2247 319.5,-1549.821 319.5,-1541.03"/>
<polygon fill="#000000" stroke="#000000" points="323.0001,-1540.7489 319.5,-1530.7489 316.0001,-1540.7489 323.0001,-1540.7489"/>
</g>
<!-- 4 -->
<g id="node5" class="node">
<title>4</title>
<polygon fill="#c1ffc1" stroke="#000000" points="211,-1417.5 211,-1455.5 428,-1455.5 428,-1417.5 211,-1417.5"/>
<text text-anchor="middle" x="246" y="-1439.5" font-family="Linux libertine" font-size="10.00" fill="#000000">MaxPool2d</text>
<text text-anchor="middle" x="246" y="-1428.5" font-family="Linux libertine" font-size="10.00" fill="#000000">depth:2</text>
<polyline fill="none" stroke="#000000" points="281,-1417.5 281,-1455.5 "/>
<text text-anchor="middle" x="306.5" y="-1443.5" font-family="Linux libertine" font-size="10.00" fill="#000000">input:</text>
<polyline fill="none" stroke="#000000" points="281,-1436.5 332,-1436.5 "/>
<text text-anchor="middle" x="306.5" y="-1424.5" font-family="Linux libertine" font-size="10.00" fill="#000000">output:</text>
<polyline fill="none" stroke="#000000" points="332,-1417.5 332,-1455.5 "/>
<text text-anchor="middle" x="380" y="-1443.5" font-family="Linux libertine" font-size="10.00" fill="#000000">(1, 64, 256, 336)</text>
<polyline fill="none" stroke="#000000" points="332,-1436.5 428,-1436.5 "/>
<text text-anchor="middle" x="380" y="-1424.5" font-family="Linux libertine" font-size="10.00" fill="#000000">(1, 64, 128, 168)</text>
</g>
<!-- 3&#45;&gt;4 -->
<g id="edge4" class="edge">
<title>3&#45;&gt;4</title>
<path fill="none" stroke="#000000" d="M319.5,-1492.1856C319.5,-1484.2247 319.5,-1474.821 319.5,-1466.03"/>
<polygon fill="#000000" stroke="#000000" points="323.0001,-1465.7489 319.5,-1455.7489 316.0001,-1465.7489 323.0001,-1465.7489"/>
</g>
<!-- 5 -->
<g id="node6" class="node">
<title>5</title>
<polygon fill="#c1ffc1" stroke="#000000" points="211,-1342.5 211,-1380.5 428,-1380.5 428,-1342.5 211,-1342.5"/>
<text text-anchor="middle" x="246" y="-1364.5" font-family="Linux libertine" font-size="10.00" fill="#000000">BasicBlock</text>
<text text-anchor="middle" x="246" y="-1353.5" font-family="Linux libertine" font-size="10.00" fill="#000000">depth:3</text>
<polyline fill="none" stroke="#000000" points="281,-1342.5 281,-1380.5 "/>
<text text-anchor="middle" x="306.5" y="-1368.5" font-family="Linux libertine" font-size="10.00" fill="#000000">input:</text>
<polyline fill="none" stroke="#000000" points="281,-1361.5 332,-1361.5 "/>
<text text-anchor="middle" x="306.5" y="-1349.5" font-family="Linux libertine" font-size="10.00" fill="#000000">output:</text>
<polyline fill="none" stroke="#000000" points="332,-1342.5 332,-1380.5 "/>
<text text-anchor="middle" x="380" y="-1368.5" font-family="Linux libertine" font-size="10.00" fill="#000000">(1, 64, 128, 168)</text>
<polyline fill="none" stroke="#000000" points="332,-1361.5 428,-1361.5 "/>
<text text-anchor="middle" x="380" y="-1349.5" font-family="Linux libertine" font-size="10.00" fill="#000000">(1, 64, 128, 168)</text>
</g>
<!-- 4&#45;&gt;5 -->
<g id="edge5" class="edge">
<title>4&#45;&gt;5</title>
<path fill="none" stroke="#000000" d="M319.5,-1417.1856C319.5,-1409.2247 319.5,-1399.821 319.5,-1391.03"/>
<polygon fill="#000000" stroke="#000000" points="323.0001,-1390.7489 319.5,-1380.7489 316.0001,-1390.7489 323.0001,-1390.7489"/>
</g>
<!-- 6 -->
<g id="node7" class="node">
<title>6</title>
<polygon fill="#c1ffc1" stroke="#000000" points="211,-1267.5 211,-1305.5 428,-1305.5 428,-1267.5 211,-1267.5"/>
<text text-anchor="middle" x="246" y="-1289.5" font-family="Linux libertine" font-size="10.00" fill="#000000">BasicBlock</text>
<text text-anchor="middle" x="246" y="-1278.5" font-family="Linux libertine" font-size="10.00" fill="#000000">depth:3</text>
<polyline fill="none" stroke="#000000" points="281,-1267.5 281,-1305.5 "/>
<text text-anchor="middle" x="306.5" y="-1293.5" font-family="Linux libertine" font-size="10.00" fill="#000000">input:</text>
<polyline fill="none" stroke="#000000" points="281,-1286.5 332,-1286.5 "/>
<text text-anchor="middle" x="306.5" y="-1274.5" font-family="Linux libertine" font-size="10.00" fill="#000000">output:</text>
<polyline fill="none" stroke="#000000" points="332,-1267.5 332,-1305.5 "/>
<text text-anchor="middle" x="380" y="-1293.5" font-family="Linux libertine" font-size="10.00" fill="#000000">(1, 64, 128, 168)</text>
<polyline fill="none" stroke="#000000" points="332,-1286.5 428,-1286.5 "/>
<text text-anchor="middle" x="380" y="-1274.5" font-family="Linux libertine" font-size="10.00" fill="#000000">(1, 64, 128, 168)</text>
</g>
<!-- 5&#45;&gt;6 -->
<g id="edge6" class="edge">
<title>5&#45;&gt;6</title>
<path fill="none" stroke="#000000" d="M319.5,-1342.1856C319.5,-1334.2247 319.5,-1324.821 319.5,-1316.03"/>
<polygon fill="#000000" stroke="#000000" points="323.0001,-1315.7489 319.5,-1305.7489 316.0001,-1315.7489 323.0001,-1315.7489"/>
</g>
<!-- 7 -->
<g id="node8" class="node">
<title>7</title>
<polygon fill="#c1ffc1" stroke="#000000" points="211,-1192.5 211,-1230.5 428,-1230.5 428,-1192.5 211,-1192.5"/>
<text text-anchor="middle" x="246" y="-1214.5" font-family="Linux libertine" font-size="10.00" fill="#000000">BasicBlock</text>
<text text-anchor="middle" x="246" y="-1203.5" font-family="Linux libertine" font-size="10.00" fill="#000000">depth:3</text>
<polyline fill="none" stroke="#000000" points="281,-1192.5 281,-1230.5 "/>
<text text-anchor="middle" x="306.5" y="-1218.5" font-family="Linux libertine" font-size="10.00" fill="#000000">input:</text>
<polyline fill="none" stroke="#000000" points="281,-1211.5 332,-1211.5 "/>
<text text-anchor="middle" x="306.5" y="-1199.5" font-family="Linux libertine" font-size="10.00" fill="#000000">output:</text>
<polyline fill="none" stroke="#000000" points="332,-1192.5 332,-1230.5 "/>
<text text-anchor="middle" x="380" y="-1218.5" font-family="Linux libertine" font-size="10.00" fill="#000000">(1, 64, 128, 168)</text>
<polyline fill="none" stroke="#000000" points="332,-1211.5 428,-1211.5 "/>
<text text-anchor="middle" x="380" y="-1199.5" font-family="Linux libertine" font-size="10.00" fill="#000000">(1, 128, 64, 84)</text>
</g>
<!-- 6&#45;&gt;7 -->
<g id="edge7" class="edge">
<title>6&#45;&gt;7</title>
<path fill="none" stroke="#000000" d="M319.5,-1267.1856C319.5,-1259.2247 319.5,-1249.821 319.5,-1241.03"/>
<polygon fill="#000000" stroke="#000000" points="323.0001,-1240.7489 319.5,-1230.7489 316.0001,-1240.7489 323.0001,-1240.7489"/>
</g>
<!-- 8 -->
<g id="node9" class="node">
<title>8</title>
<polygon fill="#c1ffc1" stroke="#000000" points="214,-1117.5 214,-1155.5 425,-1155.5 425,-1117.5 214,-1117.5"/>
<text text-anchor="middle" x="249" y="-1139.5" font-family="Linux libertine" font-size="10.00" fill="#000000">BasicBlock</text>
<text text-anchor="middle" x="249" y="-1128.5" font-family="Linux libertine" font-size="10.00" fill="#000000">depth:3</text>
<polyline fill="none" stroke="#000000" points="284,-1117.5 284,-1155.5 "/>
<text text-anchor="middle" x="309.5" y="-1143.5" font-family="Linux libertine" font-size="10.00" fill="#000000">input:</text>
<polyline fill="none" stroke="#000000" points="284,-1136.5 335,-1136.5 "/>
<text text-anchor="middle" x="309.5" y="-1124.5" font-family="Linux libertine" font-size="10.00" fill="#000000">output:</text>
<polyline fill="none" stroke="#000000" points="335,-1117.5 335,-1155.5 "/>
<text text-anchor="middle" x="380" y="-1143.5" font-family="Linux libertine" font-size="10.00" fill="#000000">(1, 128, 64, 84)</text>
<polyline fill="none" stroke="#000000" points="335,-1136.5 425,-1136.5 "/>
<text text-anchor="middle" x="380" y="-1124.5" font-family="Linux libertine" font-size="10.00" fill="#000000">(1, 128, 64, 84)</text>
</g>
<!-- 7&#45;&gt;8 -->
<g id="edge8" class="edge">
<title>7&#45;&gt;8</title>
<path fill="none" stroke="#000000" d="M319.5,-1192.1856C319.5,-1184.2247 319.5,-1174.821 319.5,-1166.03"/>
<polygon fill="#000000" stroke="#000000" points="323.0001,-1165.7489 319.5,-1155.7489 316.0001,-1165.7489 323.0001,-1165.7489"/>
</g>
<!-- 9 -->
<g id="node10" class="node">
<title>9</title>
<polygon fill="#c1ffc1" stroke="#000000" points="214,-1042.5 214,-1080.5 425,-1080.5 425,-1042.5 214,-1042.5"/>
<text text-anchor="middle" x="249" y="-1064.5" font-family="Linux libertine" font-size="10.00" fill="#000000">BasicBlock</text>
<text text-anchor="middle" x="249" y="-1053.5" font-family="Linux libertine" font-size="10.00" fill="#000000">depth:3</text>
<polyline fill="none" stroke="#000000" points="284,-1042.5 284,-1080.5 "/>
<text text-anchor="middle" x="309.5" y="-1068.5" font-family="Linux libertine" font-size="10.00" fill="#000000">input:</text>
<polyline fill="none" stroke="#000000" points="284,-1061.5 335,-1061.5 "/>
<text text-anchor="middle" x="309.5" y="-1049.5" font-family="Linux libertine" font-size="10.00" fill="#000000">output:</text>
<polyline fill="none" stroke="#000000" points="335,-1042.5 335,-1080.5 "/>
<text text-anchor="middle" x="380" y="-1068.5" font-family="Linux libertine" font-size="10.00" fill="#000000">(1, 128, 64, 84)</text>
<polyline fill="none" stroke="#000000" points="335,-1061.5 425,-1061.5 "/>
<text text-anchor="middle" x="380" y="-1049.5" font-family="Linux libertine" font-size="10.00" fill="#000000">(1, 256, 32, 42)</text>
</g>
<!-- 8&#45;&gt;9 -->
<g id="edge9" class="edge">
<title>8&#45;&gt;9</title>
<path fill="none" stroke="#000000" d="M319.5,-1117.1856C319.5,-1109.2247 319.5,-1099.821 319.5,-1091.03"/>
<polygon fill="#000000" stroke="#000000" points="323.0001,-1090.7489 319.5,-1080.7489 316.0001,-1090.7489 323.0001,-1090.7489"/>
</g>
<!-- 10 -->
<g id="node11" class="node">
<title>10</title>
<polygon fill="#c1ffc1" stroke="#000000" points="214,-967.5 214,-1005.5 425,-1005.5 425,-967.5 214,-967.5"/>
<text text-anchor="middle" x="249" y="-989.5" font-family="Linux libertine" font-size="10.00" fill="#000000">BasicBlock</text>
<text text-anchor="middle" x="249" y="-978.5" font-family="Linux libertine" font-size="10.00" fill="#000000">depth:3</text>
<polyline fill="none" stroke="#000000" points="284,-967.5 284,-1005.5 "/>
<text text-anchor="middle" x="309.5" y="-993.5" font-family="Linux libertine" font-size="10.00" fill="#000000">input:</text>
<polyline fill="none" stroke="#000000" points="284,-986.5 335,-986.5 "/>
<text text-anchor="middle" x="309.5" y="-974.5" font-family="Linux libertine" font-size="10.00" fill="#000000">output:</text>
<polyline fill="none" stroke="#000000" points="335,-967.5 335,-1005.5 "/>
<text text-anchor="middle" x="380" y="-993.5" font-family="Linux libertine" font-size="10.00" fill="#000000">(1, 256, 32, 42)</text>
<polyline fill="none" stroke="#000000" points="335,-986.5 425,-986.5 "/>
<text text-anchor="middle" x="380" y="-974.5" font-family="Linux libertine" font-size="10.00" fill="#000000">(1, 256, 32, 42)</text>
</g>
<!-- 9&#45;&gt;10 -->
<g id="edge10" class="edge">
<title>9&#45;&gt;10</title>
<path fill="none" stroke="#000000" d="M319.5,-1042.1856C319.5,-1034.2247 319.5,-1024.821 319.5,-1016.03"/>
<polygon fill="#000000" stroke="#000000" points="323.0001,-1015.7489 319.5,-1005.7489 316.0001,-1015.7489 323.0001,-1015.7489"/>
</g>
<!-- 11 -->
<g id="node12" class="node">
<title>11</title>
<polygon fill="#c1ffc1" stroke="#000000" points="214,-892.5 214,-930.5 425,-930.5 425,-892.5 214,-892.5"/>
<text text-anchor="middle" x="249" y="-914.5" font-family="Linux libertine" font-size="10.00" fill="#000000">BasicBlock</text>
<text text-anchor="middle" x="249" y="-903.5" font-family="Linux libertine" font-size="10.00" fill="#000000">depth:3</text>
<polyline fill="none" stroke="#000000" points="284,-892.5 284,-930.5 "/>
<text text-anchor="middle" x="309.5" y="-918.5" font-family="Linux libertine" font-size="10.00" fill="#000000">input:</text>
<polyline fill="none" stroke="#000000" points="284,-911.5 335,-911.5 "/>
<text text-anchor="middle" x="309.5" y="-899.5" font-family="Linux libertine" font-size="10.00" fill="#000000">output:</text>
<polyline fill="none" stroke="#000000" points="335,-892.5 335,-930.5 "/>
<text text-anchor="middle" x="380" y="-918.5" font-family="Linux libertine" font-size="10.00" fill="#000000">(1, 256, 32, 42)</text>
<polyline fill="none" stroke="#000000" points="335,-911.5 425,-911.5 "/>
<text text-anchor="middle" x="380" y="-899.5" font-family="Linux libertine" font-size="10.00" fill="#000000">(1, 512, 16, 21)</text>
</g>
<!-- 10&#45;&gt;11 -->
<g id="edge11" class="edge">
<title>10&#45;&gt;11</title>
<path fill="none" stroke="#000000" d="M319.5,-967.1856C319.5,-959.2247 319.5,-949.821 319.5,-941.03"/>
<polygon fill="#000000" stroke="#000000" points="323.0001,-940.7489 319.5,-930.7489 316.0001,-940.7489 323.0001,-940.7489"/>
</g>
<!-- 12 -->
<g id="node13" class="node">
<title>12</title>
<polygon fill="#c1ffc1" stroke="#000000" points="214,-817.5 214,-855.5 425,-855.5 425,-817.5 214,-817.5"/>
<text text-anchor="middle" x="249" y="-839.5" font-family="Linux libertine" font-size="10.00" fill="#000000">BasicBlock</text>
<text text-anchor="middle" x="249" y="-828.5" font-family="Linux libertine" font-size="10.00" fill="#000000">depth:3</text>
<polyline fill="none" stroke="#000000" points="284,-817.5 284,-855.5 "/>
<text text-anchor="middle" x="309.5" y="-843.5" font-family="Linux libertine" font-size="10.00" fill="#000000">input:</text>
<polyline fill="none" stroke="#000000" points="284,-836.5 335,-836.5 "/>
<text text-anchor="middle" x="309.5" y="-824.5" font-family="Linux libertine" font-size="10.00" fill="#000000">output:</text>
<polyline fill="none" stroke="#000000" points="335,-817.5 335,-855.5 "/>
<text text-anchor="middle" x="380" y="-843.5" font-family="Linux libertine" font-size="10.00" fill="#000000">(1, 512, 16, 21)</text>
<polyline fill="none" stroke="#000000" points="335,-836.5 425,-836.5 "/>
<text text-anchor="middle" x="380" y="-824.5" font-family="Linux libertine" font-size="10.00" fill="#000000">(1, 512, 16, 21)</text>
</g>
<!-- 11&#45;&gt;12 -->
<g id="edge12" class="edge">
<title>11&#45;&gt;12</title>
<path fill="none" stroke="#000000" d="M319.5,-892.1856C319.5,-884.2247 319.5,-874.821 319.5,-866.03"/>
<polygon fill="#000000" stroke="#000000" points="323.0001,-865.7489 319.5,-855.7489 316.0001,-865.7489 323.0001,-865.7489"/>
</g>
<!-- 13 -->
<g id="node14" class="node">
<title>13</title>
<polygon fill="#c1ffc1" stroke="#000000" points="210.5,-742.5 210.5,-780.5 428.5,-780.5 428.5,-742.5 210.5,-742.5"/>
<text text-anchor="middle" x="249" y="-764.5" font-family="Linux libertine" font-size="10.00" fill="#000000">ConvModule</text>
<text text-anchor="middle" x="249" y="-753.5" font-family="Linux libertine" font-size="10.00" fill="#000000">depth:3</text>
<polyline fill="none" stroke="#000000" points="287.5,-742.5 287.5,-780.5 "/>
<text text-anchor="middle" x="313" y="-768.5" font-family="Linux libertine" font-size="10.00" fill="#000000">input:</text>
<polyline fill="none" stroke="#000000" points="287.5,-761.5 338.5,-761.5 "/>
<text text-anchor="middle" x="313" y="-749.5" font-family="Linux libertine" font-size="10.00" fill="#000000">output:</text>
<polyline fill="none" stroke="#000000" points="338.5,-742.5 338.5,-780.5 "/>
<text text-anchor="middle" x="383.5" y="-768.5" font-family="Linux libertine" font-size="10.00" fill="#000000">(1, 512, 16, 21)</text>
<polyline fill="none" stroke="#000000" points="338.5,-761.5 428.5,-761.5 "/>
<text text-anchor="middle" x="383.5" y="-749.5" font-family="Linux libertine" font-size="10.00" fill="#000000">(1, 256, 16, 21)</text>
</g>
<!-- 12&#45;&gt;13 -->
<g id="edge13" class="edge">
<title>12&#45;&gt;13</title>
<path fill="none" stroke="#000000" d="M319.5,-817.1856C319.5,-809.2247 319.5,-799.821 319.5,-791.03"/>
<polygon fill="#000000" stroke="#000000" points="323.0001,-790.7489 319.5,-780.7489 316.0001,-790.7489 323.0001,-790.7489"/>
</g>
<!-- 14 -->
<g id="node15" class="node">
<title>14</title>
<polygon fill="#c1ffc1" stroke="#000000" points="210.5,-667.5 210.5,-705.5 428.5,-705.5 428.5,-667.5 210.5,-667.5"/>
<text text-anchor="middle" x="249" y="-689.5" font-family="Linux libertine" font-size="10.00" fill="#000000">ConvModule</text>
<text text-anchor="middle" x="249" y="-678.5" font-family="Linux libertine" font-size="10.00" fill="#000000">depth:3</text>
<polyline fill="none" stroke="#000000" points="287.5,-667.5 287.5,-705.5 "/>
<text text-anchor="middle" x="313" y="-693.5" font-family="Linux libertine" font-size="10.00" fill="#000000">input:</text>
<polyline fill="none" stroke="#000000" points="287.5,-686.5 338.5,-686.5 "/>
<text text-anchor="middle" x="313" y="-674.5" font-family="Linux libertine" font-size="10.00" fill="#000000">output:</text>
<polyline fill="none" stroke="#000000" points="338.5,-667.5 338.5,-705.5 "/>
<text text-anchor="middle" x="383.5" y="-693.5" font-family="Linux libertine" font-size="10.00" fill="#000000">(1, 256, 16, 21)</text>
<polyline fill="none" stroke="#000000" points="338.5,-686.5 428.5,-686.5 "/>
<text text-anchor="middle" x="383.5" y="-674.5" font-family="Linux libertine" font-size="10.00" fill="#000000">(1, 256, 32, 42)</text>
</g>
<!-- 13&#45;&gt;14 -->
<g id="edge14" class="edge">
<title>13&#45;&gt;14</title>
<path fill="none" stroke="#000000" d="M319.5,-742.1856C319.5,-734.2247 319.5,-724.821 319.5,-716.03"/>
<polygon fill="#000000" stroke="#000000" points="323.0001,-715.7489 319.5,-705.7489 316.0001,-715.7489 323.0001,-715.7489"/>
</g>
<!-- 15 -->
<g id="node16" class="node">
<title>15</title>
<polygon fill="#c1ffc1" stroke="#000000" points="210.5,-592.5 210.5,-630.5 428.5,-630.5 428.5,-592.5 210.5,-592.5"/>
<text text-anchor="middle" x="249" y="-614.5" font-family="Linux libertine" font-size="10.00" fill="#000000">ConvModule</text>
<text text-anchor="middle" x="249" y="-603.5" font-family="Linux libertine" font-size="10.00" fill="#000000">depth:3</text>
<polyline fill="none" stroke="#000000" points="287.5,-592.5 287.5,-630.5 "/>
<text text-anchor="middle" x="313" y="-618.5" font-family="Linux libertine" font-size="10.00" fill="#000000">input:</text>
<polyline fill="none" stroke="#000000" points="287.5,-611.5 338.5,-611.5 "/>
<text text-anchor="middle" x="313" y="-599.5" font-family="Linux libertine" font-size="10.00" fill="#000000">output:</text>
<polyline fill="none" stroke="#000000" points="338.5,-592.5 338.5,-630.5 "/>
<text text-anchor="middle" x="383.5" y="-618.5" font-family="Linux libertine" font-size="10.00" fill="#000000">(1, 256, 32, 42)</text>
<polyline fill="none" stroke="#000000" points="338.5,-611.5 428.5,-611.5 "/>
<text text-anchor="middle" x="383.5" y="-599.5" font-family="Linux libertine" font-size="10.00" fill="#000000">(1, 128, 32, 42)</text>
</g>
<!-- 14&#45;&gt;15 -->
<g id="edge15" class="edge">
<title>14&#45;&gt;15</title>
<path fill="none" stroke="#000000" d="M319.5,-667.1856C319.5,-659.2247 319.5,-649.821 319.5,-641.03"/>
<polygon fill="#000000" stroke="#000000" points="323.0001,-640.7489 319.5,-630.7489 316.0001,-640.7489 323.0001,-640.7489"/>
</g>
<!-- 16 -->
<g id="node17" class="node">
<title>16</title>
<polygon fill="#c1ffc1" stroke="#000000" points="210.5,-517.5 210.5,-555.5 428.5,-555.5 428.5,-517.5 210.5,-517.5"/>
<text text-anchor="middle" x="249" y="-539.5" font-family="Linux libertine" font-size="10.00" fill="#000000">ConvModule</text>
<text text-anchor="middle" x="249" y="-528.5" font-family="Linux libertine" font-size="10.00" fill="#000000">depth:3</text>
<polyline fill="none" stroke="#000000" points="287.5,-517.5 287.5,-555.5 "/>
<text text-anchor="middle" x="313" y="-543.5" font-family="Linux libertine" font-size="10.00" fill="#000000">input:</text>
<polyline fill="none" stroke="#000000" points="287.5,-536.5 338.5,-536.5 "/>
<text text-anchor="middle" x="313" y="-524.5" font-family="Linux libertine" font-size="10.00" fill="#000000">output:</text>
<polyline fill="none" stroke="#000000" points="338.5,-517.5 338.5,-555.5 "/>
<text text-anchor="middle" x="383.5" y="-543.5" font-family="Linux libertine" font-size="10.00" fill="#000000">(1, 128, 32, 42)</text>
<polyline fill="none" stroke="#000000" points="338.5,-536.5 428.5,-536.5 "/>
<text text-anchor="middle" x="383.5" y="-524.5" font-family="Linux libertine" font-size="10.00" fill="#000000">(1, 128, 64, 84)</text>
</g>
<!-- 15&#45;&gt;16 -->
<g id="edge16" class="edge">
<title>15&#45;&gt;16</title>
<path fill="none" stroke="#000000" d="M319.5,-592.1856C319.5,-584.2247 319.5,-574.821 319.5,-566.03"/>
<polygon fill="#000000" stroke="#000000" points="323.0001,-565.7489 319.5,-555.7489 316.0001,-565.7489 323.0001,-565.7489"/>
</g>
<!-- 17 -->
<g id="node18" class="node">
<title>17</title>
<polygon fill="#c1ffc1" stroke="#000000" points="210.5,-442.5 210.5,-480.5 428.5,-480.5 428.5,-442.5 210.5,-442.5"/>
<text text-anchor="middle" x="249" y="-464.5" font-family="Linux libertine" font-size="10.00" fill="#000000">ConvModule</text>
<text text-anchor="middle" x="249" y="-453.5" font-family="Linux libertine" font-size="10.00" fill="#000000">depth:3</text>
<polyline fill="none" stroke="#000000" points="287.5,-442.5 287.5,-480.5 "/>
<text text-anchor="middle" x="313" y="-468.5" font-family="Linux libertine" font-size="10.00" fill="#000000">input:</text>
<polyline fill="none" stroke="#000000" points="287.5,-461.5 338.5,-461.5 "/>
<text text-anchor="middle" x="313" y="-449.5" font-family="Linux libertine" font-size="10.00" fill="#000000">output:</text>
<polyline fill="none" stroke="#000000" points="338.5,-442.5 338.5,-480.5 "/>
<text text-anchor="middle" x="383.5" y="-468.5" font-family="Linux libertine" font-size="10.00" fill="#000000">(1, 128, 64, 84)</text>
<polyline fill="none" stroke="#000000" points="338.5,-461.5 428.5,-461.5 "/>
<text text-anchor="middle" x="383.5" y="-449.5" font-family="Linux libertine" font-size="10.00" fill="#000000">(1, 64, 64, 84)</text>
</g>
<!-- 16&#45;&gt;17 -->
<g id="edge17" class="edge">
<title>16&#45;&gt;17</title>
<path fill="none" stroke="#000000" d="M319.5,-517.1856C319.5,-509.2247 319.5,-499.821 319.5,-491.03"/>
<polygon fill="#000000" stroke="#000000" points="323.0001,-490.7489 319.5,-480.7489 316.0001,-490.7489 323.0001,-490.7489"/>
</g>
<!-- 18 -->
<g id="node19" class="node">
<title>18</title>
<polygon fill="#c1ffc1" stroke="#000000" points="207.5,-367.5 207.5,-405.5 431.5,-405.5 431.5,-367.5 207.5,-367.5"/>
<text text-anchor="middle" x="246" y="-389.5" font-family="Linux libertine" font-size="10.00" fill="#000000">ConvModule</text>
<text text-anchor="middle" x="246" y="-378.5" font-family="Linux libertine" font-size="10.00" fill="#000000">depth:3</text>
<polyline fill="none" stroke="#000000" points="284.5,-367.5 284.5,-405.5 "/>
<text text-anchor="middle" x="310" y="-393.5" font-family="Linux libertine" font-size="10.00" fill="#000000">input:</text>
<polyline fill="none" stroke="#000000" points="284.5,-386.5 335.5,-386.5 "/>
<text text-anchor="middle" x="310" y="-374.5" font-family="Linux libertine" font-size="10.00" fill="#000000">output:</text>
<polyline fill="none" stroke="#000000" points="335.5,-367.5 335.5,-405.5 "/>
<text text-anchor="middle" x="383.5" y="-393.5" font-family="Linux libertine" font-size="10.00" fill="#000000">(1, 64, 64, 84)</text>
<polyline fill="none" stroke="#000000" points="335.5,-386.5 431.5,-386.5 "/>
<text text-anchor="middle" x="383.5" y="-374.5" font-family="Linux libertine" font-size="10.00" fill="#000000">(1, 64, 128, 168)</text>
</g>
<!-- 17&#45;&gt;18 -->
<g id="edge18" class="edge">
<title>17&#45;&gt;18</title>
<path fill="none" stroke="#000000" d="M319.5,-442.1856C319.5,-434.2247 319.5,-424.821 319.5,-416.03"/>
<polygon fill="#000000" stroke="#000000" points="323.0001,-415.7489 319.5,-405.7489 316.0001,-415.7489 323.0001,-415.7489"/>
</g>
<!-- 19 -->
<g id="node20" class="node">
<title>19</title>
<polygon fill="#c1ffc1" stroke="#000000" points="1.5,-292.5 1.5,-330.5 201.5,-330.5 201.5,-292.5 1.5,-292.5"/>
<text text-anchor="middle" x="28" y="-314.5" font-family="Linux libertine" font-size="10.00" fill="#000000">Conv2d</text>
<text text-anchor="middle" x="28" y="-303.5" font-family="Linux libertine" font-size="10.00" fill="#000000">depth:2</text>
<polyline fill="none" stroke="#000000" points="54.5,-292.5 54.5,-330.5 "/>
<text text-anchor="middle" x="80" y="-318.5" font-family="Linux libertine" font-size="10.00" fill="#000000">input:</text>
<polyline fill="none" stroke="#000000" points="54.5,-311.5 105.5,-311.5 "/>
<text text-anchor="middle" x="80" y="-299.5" font-family="Linux libertine" font-size="10.00" fill="#000000">output:</text>
<polyline fill="none" stroke="#000000" points="105.5,-292.5 105.5,-330.5 "/>
<text text-anchor="middle" x="153.5" y="-318.5" font-family="Linux libertine" font-size="10.00" fill="#000000">(1, 64, 128, 168)</text>
<polyline fill="none" stroke="#000000" points="105.5,-311.5 201.5,-311.5 "/>
<text text-anchor="middle" x="153.5" y="-299.5" font-family="Linux libertine" font-size="10.00" fill="#000000">(1, 64, 128, 168)</text>
</g>
<!-- 18&#45;&gt;19 -->
<g id="edge19" class="edge">
<title>18&#45;&gt;19</title>
<path fill="none" stroke="#000000" d="M264.2076,-367.4774C234.371,-357.2125 197.3768,-344.4851 166.2059,-333.7612"/>
<polygon fill="#000000" stroke="#000000" points="167.3282,-330.446 156.7335,-330.5023 165.0509,-337.0653 167.3282,-330.446"/>
</g>
<!-- 24 -->
<g id="node25" class="node">
<title>24</title>
<polygon fill="#c1ffc1" stroke="#000000" points="219.5,-292.5 219.5,-330.5 419.5,-330.5 419.5,-292.5 219.5,-292.5"/>
<text text-anchor="middle" x="246" y="-314.5" font-family="Linux libertine" font-size="10.00" fill="#000000">Conv2d</text>
<text text-anchor="middle" x="246" y="-303.5" font-family="Linux libertine" font-size="10.00" fill="#000000">depth:2</text>
<polyline fill="none" stroke="#000000" points="272.5,-292.5 272.5,-330.5 "/>
<text text-anchor="middle" x="298" y="-318.5" font-family="Linux libertine" font-size="10.00" fill="#000000">input:</text>
<polyline fill="none" stroke="#000000" points="272.5,-311.5 323.5,-311.5 "/>
<text text-anchor="middle" x="298" y="-299.5" font-family="Linux libertine" font-size="10.00" fill="#000000">output:</text>
<polyline fill="none" stroke="#000000" points="323.5,-292.5 323.5,-330.5 "/>
<text text-anchor="middle" x="371.5" y="-318.5" font-family="Linux libertine" font-size="10.00" fill="#000000">(1, 64, 128, 168)</text>
<polyline fill="none" stroke="#000000" points="323.5,-311.5 419.5,-311.5 "/>
<text text-anchor="middle" x="371.5" y="-299.5" font-family="Linux libertine" font-size="10.00" fill="#000000">(1, 64, 128, 168)</text>
</g>
<!-- 18&#45;&gt;24 -->
<g id="edge24" class="edge">
<title>18&#45;&gt;24</title>
<path fill="none" stroke="#000000" d="M319.5,-367.1856C319.5,-359.2247 319.5,-349.821 319.5,-341.03"/>
<polygon fill="#000000" stroke="#000000" points="323.0001,-340.7489 319.5,-330.7489 316.0001,-340.7489 323.0001,-340.7489"/>
</g>
<!-- 28 -->
<g id="node29" class="node">
<title>28</title>
<polygon fill="#c1ffc1" stroke="#000000" points="437.5,-292.5 437.5,-330.5 637.5,-330.5 637.5,-292.5 437.5,-292.5"/>
<text text-anchor="middle" x="464" y="-314.5" font-family="Linux libertine" font-size="10.00" fill="#000000">Conv2d</text>
<text text-anchor="middle" x="464" y="-303.5" font-family="Linux libertine" font-size="10.00" fill="#000000">depth:2</text>
<polyline fill="none" stroke="#000000" points="490.5,-292.5 490.5,-330.5 "/>
<text text-anchor="middle" x="516" y="-318.5" font-family="Linux libertine" font-size="10.00" fill="#000000">input:</text>
<polyline fill="none" stroke="#000000" points="490.5,-311.5 541.5,-311.5 "/>
<text text-anchor="middle" x="516" y="-299.5" font-family="Linux libertine" font-size="10.00" fill="#000000">output:</text>
<polyline fill="none" stroke="#000000" points="541.5,-292.5 541.5,-330.5 "/>
<text text-anchor="middle" x="589.5" y="-318.5" font-family="Linux libertine" font-size="10.00" fill="#000000">(1, 64, 128, 168)</text>
<polyline fill="none" stroke="#000000" points="541.5,-311.5 637.5,-311.5 "/>
<text text-anchor="middle" x="589.5" y="-299.5" font-family="Linux libertine" font-size="10.00" fill="#000000">(1, 64, 128, 168)</text>
</g>
<!-- 18&#45;&gt;28 -->
<g id="edge28" class="edge">
<title>18&#45;&gt;28</title>
<path fill="none" stroke="#000000" d="M374.7924,-367.4774C404.629,-357.2125 441.6232,-344.4851 472.7941,-333.7612"/>
<polygon fill="#000000" stroke="#000000" points="473.9491,-337.0653 482.2665,-330.5023 471.6718,-330.446 473.9491,-337.0653"/>
</g>
<!-- 20 -->
<g id="node21" class="node">
<title>20</title>
<polygon fill="#c1ffc1" stroke="#000000" points="1.5,-217.5 1.5,-255.5 201.5,-255.5 201.5,-217.5 1.5,-217.5"/>
<text text-anchor="middle" x="28" y="-239.5" font-family="Linux libertine" font-size="10.00" fill="#000000">ReLU</text>
<text text-anchor="middle" x="28" y="-228.5" font-family="Linux libertine" font-size="10.00" fill="#000000">depth:2</text>
<polyline fill="none" stroke="#000000" points="54.5,-217.5 54.5,-255.5 "/>
<text text-anchor="middle" x="80" y="-243.5" font-family="Linux libertine" font-size="10.00" fill="#000000">input:</text>
<polyline fill="none" stroke="#000000" points="54.5,-236.5 105.5,-236.5 "/>
<text text-anchor="middle" x="80" y="-224.5" font-family="Linux libertine" font-size="10.00" fill="#000000">output:</text>
<polyline fill="none" stroke="#000000" points="105.5,-217.5 105.5,-255.5 "/>
<text text-anchor="middle" x="153.5" y="-243.5" font-family="Linux libertine" font-size="10.00" fill="#000000">(1, 64, 128, 168)</text>
<polyline fill="none" stroke="#000000" points="105.5,-236.5 201.5,-236.5 "/>
<text text-anchor="middle" x="153.5" y="-224.5" font-family="Linux libertine" font-size="10.00" fill="#000000">(1, 64, 128, 168)</text>
</g>
<!-- 19&#45;&gt;20 -->
<g id="edge20" class="edge">
<title>19&#45;&gt;20</title>
<path fill="none" stroke="#000000" d="M101.5,-292.1856C101.5,-284.2247 101.5,-274.821 101.5,-266.03"/>
<polygon fill="#000000" stroke="#000000" points="105.0001,-265.7489 101.5,-255.7489 98.0001,-265.7489 105.0001,-265.7489"/>
</g>
<!-- 21 -->
<g id="node22" class="node">
<title>21</title>
<polygon fill="#c1ffc1" stroke="#000000" points="1.5,-142.5 1.5,-180.5 201.5,-180.5 201.5,-142.5 1.5,-142.5"/>
<text text-anchor="middle" x="28" y="-164.5" font-family="Linux libertine" font-size="10.00" fill="#000000">Conv2d</text>
<text text-anchor="middle" x="28" y="-153.5" font-family="Linux libertine" font-size="10.00" fill="#000000">depth:2</text>
<polyline fill="none" stroke="#000000" points="54.5,-142.5 54.5,-180.5 "/>
<text text-anchor="middle" x="80" y="-168.5" font-family="Linux libertine" font-size="10.00" fill="#000000">input:</text>
<polyline fill="none" stroke="#000000" points="54.5,-161.5 105.5,-161.5 "/>
<text text-anchor="middle" x="80" y="-149.5" font-family="Linux libertine" font-size="10.00" fill="#000000">output:</text>
<polyline fill="none" stroke="#000000" points="105.5,-142.5 105.5,-180.5 "/>
<text text-anchor="middle" x="153.5" y="-168.5" font-family="Linux libertine" font-size="10.00" fill="#000000">(1, 64, 128, 168)</text>
<polyline fill="none" stroke="#000000" points="105.5,-161.5 201.5,-161.5 "/>
<text text-anchor="middle" x="153.5" y="-149.5" font-family="Linux libertine" font-size="10.00" fill="#000000">(1, 80, 128, 168)</text>
</g>
<!-- 20&#45;&gt;21 -->
<g id="edge21" class="edge">
<title>20&#45;&gt;21</title>
<path fill="none" stroke="#000000" d="M101.5,-217.1856C101.5,-209.2247 101.5,-199.821 101.5,-191.03"/>
<polygon fill="#000000" stroke="#000000" points="105.0001,-190.7489 101.5,-180.7489 98.0001,-190.7489 105.0001,-190.7489"/>
</g>
<!-- 22 -->
<g id="node23" class="node">
<title>22</title>
<polygon fill="#f0f8ff" stroke="#000000" points="0,-67.5 0,-105.5 203,-105.5 203,-67.5 0,-67.5"/>
<text text-anchor="middle" x="28" y="-89.5" font-family="Linux libertine" font-size="10.00" fill="#000000">sigmoid</text>
<text text-anchor="middle" x="28" y="-78.5" font-family="Linux libertine" font-size="10.00" fill="#000000">depth:1</text>
<polyline fill="none" stroke="#000000" points="56,-67.5 56,-105.5 "/>
<text text-anchor="middle" x="81.5" y="-93.5" font-family="Linux libertine" font-size="10.00" fill="#000000">input:</text>
<polyline fill="none" stroke="#000000" points="56,-86.5 107,-86.5 "/>
<text text-anchor="middle" x="81.5" y="-74.5" font-family="Linux libertine" font-size="10.00" fill="#000000">output:</text>
<polyline fill="none" stroke="#000000" points="107,-67.5 107,-105.5 "/>
<text text-anchor="middle" x="155" y="-93.5" font-family="Linux libertine" font-size="10.00" fill="#000000">(1, 80, 128, 168)</text>
<polyline fill="none" stroke="#000000" points="107,-86.5 203,-86.5 "/>
<text text-anchor="middle" x="155" y="-74.5" font-family="Linux libertine" font-size="10.00" fill="#000000">(1, 80, 128, 168)</text>
</g>
<!-- 21&#45;&gt;22 -->
<g id="edge22" class="edge">
<title>21&#45;&gt;22</title>
<path fill="none" stroke="#000000" d="M101.5,-142.1856C101.5,-134.2247 101.5,-124.821 101.5,-116.03"/>
<polygon fill="#000000" stroke="#000000" points="105.0001,-115.7489 101.5,-105.7489 98.0001,-115.7489 105.0001,-115.7489"/>
</g>
<!-- 23 -->
<g id="node24" class="node">
<title>23</title>
<polygon fill="#ffffe0" stroke="#000000" points="12,-.5 12,-30.5 191,-30.5 191,-.5 12,-.5"/>
<text text-anchor="middle" x="53.5" y="-18.5" font-family="Linux libertine" font-size="10.00" fill="#000000">output&#45;tensor</text>
<text text-anchor="middle" x="53.5" y="-7.5" font-family="Linux libertine" font-size="10.00" fill="#000000">depth:0</text>
<polyline fill="none" stroke="#000000" points="95,-.5 95,-30.5 "/>
<text text-anchor="middle" x="143" y="-13" font-family="Linux libertine" font-size="10.00" fill="#000000">(1, 80, 128, 168)</text>
</g>
<!-- 22&#45;&gt;23 -->
<g id="edge23" class="edge">
<title>22&#45;&gt;23</title>
<path fill="none" stroke="#000000" d="M101.5,-67.4733C101.5,-59.2966 101.5,-49.6216 101.5,-40.8495"/>
<polygon fill="#000000" stroke="#000000" points="105.0001,-40.7585 101.5,-30.7585 98.0001,-40.7586 105.0001,-40.7585"/>
</g>
<!-- 25 -->
<g id="node26" class="node">
<title>25</title>
<polygon fill="#c1ffc1" stroke="#000000" points="219.5,-217.5 219.5,-255.5 419.5,-255.5 419.5,-217.5 219.5,-217.5"/>
<text text-anchor="middle" x="246" y="-239.5" font-family="Linux libertine" font-size="10.00" fill="#000000">ReLU</text>
<text text-anchor="middle" x="246" y="-228.5" font-family="Linux libertine" font-size="10.00" fill="#000000">depth:2</text>
<polyline fill="none" stroke="#000000" points="272.5,-217.5 272.5,-255.5 "/>
<text text-anchor="middle" x="298" y="-243.5" font-family="Linux libertine" font-size="10.00" fill="#000000">input:</text>
<polyline fill="none" stroke="#000000" points="272.5,-236.5 323.5,-236.5 "/>
<text text-anchor="middle" x="298" y="-224.5" font-family="Linux libertine" font-size="10.00" fill="#000000">output:</text>
<polyline fill="none" stroke="#000000" points="323.5,-217.5 323.5,-255.5 "/>
<text text-anchor="middle" x="371.5" y="-243.5" font-family="Linux libertine" font-size="10.00" fill="#000000">(1, 64, 128, 168)</text>
<polyline fill="none" stroke="#000000" points="323.5,-236.5 419.5,-236.5 "/>
<text text-anchor="middle" x="371.5" y="-224.5" font-family="Linux libertine" font-size="10.00" fill="#000000">(1, 64, 128, 168)</text>
</g>
<!-- 24&#45;&gt;25 -->
<g id="edge25" class="edge">
<title>24&#45;&gt;25</title>
<path fill="none" stroke="#000000" d="M319.5,-292.1856C319.5,-284.2247 319.5,-274.821 319.5,-266.03"/>
<polygon fill="#000000" stroke="#000000" points="323.0001,-265.7489 319.5,-255.7489 316.0001,-265.7489 323.0001,-265.7489"/>
</g>
<!-- 26 -->
<g id="node27" class="node">
<title>26</title>
<polygon fill="#c1ffc1" stroke="#000000" points="219.5,-142.5 219.5,-180.5 419.5,-180.5 419.5,-142.5 219.5,-142.5"/>
<text text-anchor="middle" x="246" y="-164.5" font-family="Linux libertine" font-size="10.00" fill="#000000">Conv2d</text>
<text text-anchor="middle" x="246" y="-153.5" font-family="Linux libertine" font-size="10.00" fill="#000000">depth:2</text>
<polyline fill="none" stroke="#000000" points="272.5,-142.5 272.5,-180.5 "/>
<text text-anchor="middle" x="298" y="-168.5" font-family="Linux libertine" font-size="10.00" fill="#000000">input:</text>
<polyline fill="none" stroke="#000000" points="272.5,-161.5 323.5,-161.5 "/>
<text text-anchor="middle" x="298" y="-149.5" font-family="Linux libertine" font-size="10.00" fill="#000000">output:</text>
<polyline fill="none" stroke="#000000" points="323.5,-142.5 323.5,-180.5 "/>
<text text-anchor="middle" x="371.5" y="-168.5" font-family="Linux libertine" font-size="10.00" fill="#000000">(1, 64, 128, 168)</text>
<polyline fill="none" stroke="#000000" points="323.5,-161.5 419.5,-161.5 "/>
<text text-anchor="middle" x="371.5" y="-149.5" font-family="Linux libertine" font-size="10.00" fill="#000000">(1, 2, 128, 168)</text>
</g>
<!-- 25&#45;&gt;26 -->
<g id="edge26" class="edge">
<title>25&#45;&gt;26</title>
<path fill="none" stroke="#000000" d="M319.5,-217.1856C319.5,-209.2247 319.5,-199.821 319.5,-191.03"/>
<polygon fill="#000000" stroke="#000000" points="323.0001,-190.7489 319.5,-180.7489 316.0001,-190.7489 323.0001,-190.7489"/>
</g>
<!-- 27 -->
<g id="node28" class="node">
<title>27</title>
<polygon fill="#ffffe0" stroke="#000000" points="233,-71.5 233,-101.5 406,-101.5 406,-71.5 233,-71.5"/>
<text text-anchor="middle" x="274.5" y="-89.5" font-family="Linux libertine" font-size="10.00" fill="#000000">output&#45;tensor</text>
<text text-anchor="middle" x="274.5" y="-78.5" font-family="Linux libertine" font-size="10.00" fill="#000000">depth:0</text>
<polyline fill="none" stroke="#000000" points="316,-71.5 316,-101.5 "/>
<text text-anchor="middle" x="361" y="-84" font-family="Linux libertine" font-size="10.00" fill="#000000">(1, 2, 128, 168)</text>
</g>
<!-- 26&#45;&gt;27 -->
<g id="edge27" class="edge">
<title>26&#45;&gt;27</title>
<path fill="none" stroke="#000000" d="M319.5,-142.1856C319.5,-133.0061 319.5,-121.9082 319.5,-112.0433"/>
<polygon fill="#000000" stroke="#000000" points="323.0001,-111.9718 319.5,-101.9718 316.0001,-111.9719 323.0001,-111.9718"/>
</g>
<!-- 29 -->
<g id="node30" class="node">
<title>29</title>
<polygon fill="#c1ffc1" stroke="#000000" points="437.5,-217.5 437.5,-255.5 637.5,-255.5 637.5,-217.5 437.5,-217.5"/>
<text text-anchor="middle" x="464" y="-239.5" font-family="Linux libertine" font-size="10.00" fill="#000000">ReLU</text>
<text text-anchor="middle" x="464" y="-228.5" font-family="Linux libertine" font-size="10.00" fill="#000000">depth:2</text>
<polyline fill="none" stroke="#000000" points="490.5,-217.5 490.5,-255.5 "/>
<text text-anchor="middle" x="516" y="-243.5" font-family="Linux libertine" font-size="10.00" fill="#000000">input:</text>
<polyline fill="none" stroke="#000000" points="490.5,-236.5 541.5,-236.5 "/>
<text text-anchor="middle" x="516" y="-224.5" font-family="Linux libertine" font-size="10.00" fill="#000000">output:</text>
<polyline fill="none" stroke="#000000" points="541.5,-217.5 541.5,-255.5 "/>
<text text-anchor="middle" x="589.5" y="-243.5" font-family="Linux libertine" font-size="10.00" fill="#000000">(1, 64, 128, 168)</text>
<polyline fill="none" stroke="#000000" points="541.5,-236.5 637.5,-236.5 "/>
<text text-anchor="middle" x="589.5" y="-224.5" font-family="Linux libertine" font-size="10.00" fill="#000000">(1, 64, 128, 168)</text>
</g>
<!-- 28&#45;&gt;29 -->
<g id="edge29" class="edge">
<title>28&#45;&gt;29</title>
<path fill="none" stroke="#000000" d="M537.5,-292.1856C537.5,-284.2247 537.5,-274.821 537.5,-266.03"/>
<polygon fill="#000000" stroke="#000000" points="541.0001,-265.7489 537.5,-255.7489 534.0001,-265.7489 541.0001,-265.7489"/>
</g>
<!-- 30 -->
<g id="node31" class="node">
<title>30</title>
<polygon fill="#c1ffc1" stroke="#000000" points="437.5,-142.5 437.5,-180.5 637.5,-180.5 637.5,-142.5 437.5,-142.5"/>
<text text-anchor="middle" x="464" y="-164.5" font-family="Linux libertine" font-size="10.00" fill="#000000">Conv2d</text>
<text text-anchor="middle" x="464" y="-153.5" font-family="Linux libertine" font-size="10.00" fill="#000000">depth:2</text>
<polyline fill="none" stroke="#000000" points="490.5,-142.5 490.5,-180.5 "/>
<text text-anchor="middle" x="516" y="-168.5" font-family="Linux libertine" font-size="10.00" fill="#000000">input:</text>
<polyline fill="none" stroke="#000000" points="490.5,-161.5 541.5,-161.5 "/>
<text text-anchor="middle" x="516" y="-149.5" font-family="Linux libertine" font-size="10.00" fill="#000000">output:</text>
<polyline fill="none" stroke="#000000" points="541.5,-142.5 541.5,-180.5 "/>
<text text-anchor="middle" x="589.5" y="-168.5" font-family="Linux libertine" font-size="10.00" fill="#000000">(1, 64, 128, 168)</text>
<polyline fill="none" stroke="#000000" points="541.5,-161.5 637.5,-161.5 "/>
<text text-anchor="middle" x="589.5" y="-149.5" font-family="Linux libertine" font-size="10.00" fill="#000000">(1, 2, 128, 168)</text>
</g>
<!-- 29&#45;&gt;30 -->
<g id="edge30" class="edge">
<title>29&#45;&gt;30</title>
<path fill="none" stroke="#000000" d="M537.5,-217.1856C537.5,-209.2247 537.5,-199.821 537.5,-191.03"/>
<polygon fill="#000000" stroke="#000000" points="541.0001,-190.7489 537.5,-180.7489 534.0001,-190.7489 541.0001,-190.7489"/>
</g>
<!-- 31 -->
<g id="node32" class="node">
<title>31</title>
<polygon fill="#ffffe0" stroke="#000000" points="451,-71.5 451,-101.5 624,-101.5 624,-71.5 451,-71.5"/>
<text text-anchor="middle" x="492.5" y="-89.5" font-family="Linux libertine" font-size="10.00" fill="#000000">output&#45;tensor</text>
<text text-anchor="middle" x="492.5" y="-78.5" font-family="Linux libertine" font-size="10.00" fill="#000000">depth:0</text>
<polyline fill="none" stroke="#000000" points="534,-71.5 534,-101.5 "/>
<text text-anchor="middle" x="579" y="-84" font-family="Linux libertine" font-size="10.00" fill="#000000">(1, 2, 128, 168)</text>
</g>
<!-- 30&#45;&gt;31 -->
<g id="edge31" class="edge">
<title>30&#45;&gt;31</title>
<path fill="none" stroke="#000000" d="M537.5,-142.1856C537.5,-133.0061 537.5,-121.9082 537.5,-112.0433"/>
<polygon fill="#000000" stroke="#000000" points="541.0001,-111.9718 537.5,-101.9718 534.0001,-111.9719 541.0001,-111.9718"/>
</g>
</g>
</svg>
